<?xml version="1.0" standalone="no"?>
<!DOCTYPE svg PUBLIC "-//W3C//DTD SVG 20010904//EN"
 "http://www.w3.org/TR/2001/REC-SVG-20010904/DTD/svg10.dtd">
<svg version="1.0" xmlns="http://www.w3.org/2000/svg"
 width="1280.000000pt" height="1173.000000pt" viewBox="0 0 1280.000000 1173.000000"
 preserveAspectRatio="xMidYMid meet">
<metadata>
Created by potrace 1.15, written by Peter Selinger 2001-2017
</metadata>
<g transform="translate(0.000000,1173.000000) scale(0.100000,-0.100000)"
fill="#ca2f1d" stroke="none">
<path d="M0 5865 l0 -5865 4780 0 4780 0 0 993 1 992 236 143 c130 78 237 141
238 140 2 -2 302 -502 668 -1111 366 -610 668 -1109 671 -1110 3 -1 325 205
716 458 l709 460 1 102 0 102 -641 948 c-353 521 -643 953 -645 958 -2 6 287
186 641 400 l644 390 1 50 0 50 -1620 1240 -1620 1240 0 2643 0 2642 -4780 0
-4780 0 0 -5865z m8780 3820 l0 -1275 -4005 0 -4005 0 0 1275 0 1275 4005 0
4005 0 0 -1275z m-1660 -2545 l0 -390 -2390 0 -2390 0 0 390 0 390 2390 0
2390 0 0 -390z m1003 -1497 c16 -126 73 -588 127 -1028 55 -440 118 -948 140
-1130 22 -181 85 -690 140 -1130 54 -440 102 -828 106 -863 8 -72 5 -71 89
-17 l55 35 0 -370 0 -370 -4005 0 -4005 0 0 2550 0 2550 3663 0 3663 0 27
-227z"/>
<path d="M2345 10067 c-3 -6 -4 -183 -3 -392 l3 -380 2388 -3 2387 -2 0 395 0
395 -2385 0 c-1903 0 -2387 -3 -2390 -13z"/>
<path d="M2340 4600 l0 -390 2390 0 2390 0 0 390 0 390 -2390 0 -2390 0 0
-390z"/>
<path d="M2340 2060 l0 -390 2390 0 2390 0 0 390 0 390 -2390 0 -2390 0 0
-390z"/>
</g>
</svg>