<svg id="Capa_1" enable-background="new 0 0 512 512" viewBox="0 0 512 512" xmlns="http://www.w3.org/2000/svg"><g id="XMLID_2393_"><path id="XMLID_2422_" d="m310.74 16.168c6.446 46.542 58.232 71.48 98.638 47.502-14.386 44.729 21.451 89.667 68.26 85.595-32.368 34.058-19.578 90.094 24.362 106.735-43.94 16.641-56.73 72.678-24.362 106.735-46.809-4.072-82.646 40.866-68.26 85.595-40.406-23.979-92.192.96-98.638 47.502-26.001-39.136-83.479-39.136-109.48 0-6.446-46.542-58.232-71.48-98.638-47.502 14.386-44.729-21.451-89.667-68.26-85.595 32.368-34.057 19.578-90.094-24.362-106.735 43.94-16.641 56.73-72.678 24.362-106.735 46.809 4.072 82.646-40.866 68.26-85.595 40.406 23.979 92.192-.96 98.638-47.502 26.001 39.136 83.479 39.136 109.48 0z" fill="#f9e6b4"/><circle id="XMLID_2421_" cx="256" cy="256" fill="#f2cd69" r="159"/><g id="XMLID_2401_" fill="#8690af"><circle id="XMLID_2419_" cx="325.5" cy="250.131" r="49.5"/><circle id="XMLID_2418_" cx="186.5" cy="250.131" r="49.5"/></g><g id="XMLID_2097_"><g id="XMLID_2098_"><path id="XMLID_2119_" d="m505.542 246.649c-17.757-6.725-30.364-21.198-34.59-39.71-4.225-18.512.855-37.021 13.935-50.785 2.864-3.013 3.565-7.482 1.762-11.228-1.804-3.745-5.748-5.984-9.876-5.623-18.933 1.636-36.556-5.926-48.395-20.771-11.838-14.845-15.294-33.726-9.48-51.801 1.272-3.957-.035-8.288-3.284-10.88-3.252-2.592-7.764-2.903-11.339-.781-16.328 9.688-35.505 10.523-52.611 2.284-17.107-8.238-28.413-23.751-31.018-42.559-.57-4.117-3.628-7.452-7.68-8.377-4.055-.928-8.254.753-10.555 4.215-10.508 15.816-27.424 24.887-46.411 24.887s-35.903-9.07-46.411-24.886c-2.3-3.461-6.5-5.14-10.555-4.215-4.052.925-7.109 4.26-7.68 8.377-2.604 18.808-13.91 34.319-31.017 42.558-17.107 8.24-36.284 7.406-52.613-2.283-3.577-2.123-8.089-1.809-11.339.781-3.249 2.592-4.557 6.924-3.284 10.88 5.813 18.075 2.358 36.956-9.479 51.801-11.839 14.845-29.463 22.408-48.395 20.771-4.132-.366-8.072 1.878-9.876 5.623s-1.103 8.215 1.762 11.228c13.08 13.764 18.159 32.273 13.935 50.785-4.226 18.512-16.833 32.985-34.59 39.71-3.887 1.47-6.458 5.194-6.458 9.35s2.571 7.88 6.458 9.352c17.757 6.725 30.364 21.198 34.59 39.71 4.225 18.512-.854 37.022-13.935 50.785-2.864 3.013-3.565 7.482-1.762 11.227 1.804 3.746 5.745 5.982 9.876 5.623 18.93-1.634 36.556 5.926 48.395 20.771 11.838 14.845 15.294 33.726 9.48 51.801-1.272 3.957.035 8.288 3.284 10.88 3.251 2.592 7.764 2.903 11.339.781 16.328-9.689 35.504-10.522 52.611-2.284s28.413 23.751 31.018 42.559c.57 4.117 3.628 7.452 7.68 8.377 4.056.927 8.255-.753 10.555-4.215 10.508-15.815 27.424-24.886 46.411-24.886s35.903 9.07 46.411 24.886c1.879 2.828 5.028 4.467 8.328 4.467.738 0 1.485-.083 2.227-.252 4.052-.925 7.109-4.26 7.68-8.377 2.605-18.808 13.91-34.319 31.017-42.558 17.107-8.24 36.284-7.407 52.613 2.283 3.577 2.124 8.089 1.81 11.339-.781 3.249-2.592 4.557-6.924 3.284-10.88-5.813-18.075-2.358-36.956 9.479-51.801 11.839-14.845 29.466-22.407 48.395-20.771 4.124.36 8.072-1.878 9.876-5.623s1.103-8.215-1.762-11.227c-13.08-13.764-18.159-32.273-13.935-50.785 4.226-18.512 16.833-32.985 34.59-39.71 3.887-1.472 6.458-5.196 6.458-9.352s-2.571-7.88-6.458-9.351zm-54.088 53.962c-4.163 18.238-1.429 37.027 7.284 53.022-17.939 3.161-34.333 12.737-45.997 27.364-11.663 14.626-17.353 32.739-16.442 50.931-17.535-4.936-36.46-3.419-53.313 4.698-16.855 8.116-29.84 21.969-36.913 38.753-13.655-12.054-31.364-18.899-50.072-18.899s-36.417 6.846-50.072 18.899c-7.073-16.784-20.058-30.636-36.912-38.753-16.854-8.118-35.782-9.631-53.314-4.698.909-18.191-4.779-36.305-16.442-50.931-11.664-14.626-28.059-24.203-45.997-27.364 8.713-15.995 11.447-34.784 7.284-53.022-4.162-18.238-14.778-33.98-29.568-44.611 14.79-10.631 25.406-26.373 29.568-44.611 4.163-18.238 1.429-37.027-7.284-53.023 17.938-3.161 34.333-12.737 45.997-27.364 11.663-14.626 17.353-32.739 16.442-50.931 17.534 4.935 36.459 3.418 53.313-4.698 16.856-8.116 29.84-21.969 36.913-38.753 13.654 12.054 31.363 18.9 50.071 18.9s36.417-6.846 50.072-18.899c7.073 16.784 20.058 30.636 36.912 38.753 16.856 8.118 35.784 9.633 53.314 4.698-.909 18.191 4.779 36.305 16.442 50.931 11.664 14.626 28.059 24.203 45.997 27.364-8.713 15.995-11.447 34.784-7.284 53.023 4.162 18.238 14.778 33.98 29.568 44.611-14.789 10.63-25.405 26.372-29.567 44.61z"/><path id="XMLID_2101_" d="m422.071 175.99c-3.904-3.902-10.234-3.904-14.143 0l-1.966 1.966c-4.41-8.432-9.558-16.544-15.435-24.261-21.822-28.654-52.786-49.952-87.187-59.972-5.301-1.546-10.854 1.501-12.397 6.804-1.545 5.303 1.502 10.854 6.804 12.397 41.841 12.187 75.315 42.131 93.145 80.102l-19.4 19.4c-10.921-13.297-27.481-21.796-45.992-21.796-21.058 0-39.582 11.006-50.16 27.558h-38.68c-10.578-16.552-29.102-27.558-50.16-27.558-18.51 0-35.071 8.498-45.992 21.796l-19.389-19.389c17.775-37.837 51.082-67.726 92.701-79.986 5.298-1.561 8.328-7.12 6.768-12.418-1.561-5.298-7.123-8.325-12.418-6.768-34.281 10.099-65.125 31.416-86.848 60.026-5.814 7.658-10.912 15.703-15.285 24.064l-1.966-1.966c-3.906-3.904-10.236-3.904-14.143 0-3.905 3.905-3.905 10.237 0 14.143l7.416 7.416c-6.822 18.508-10.344 38.195-10.344 58.452 0 93.186 75.813 169 169 169s169-75.814 169-169c0-20.261-3.522-39.947-10.344-58.452l7.415-7.415c3.906-3.905 3.906-10.237 0-14.143zm-62.492 54.205c3.439 5.857 5.421 12.668 5.421 19.936 0 21.78-17.72 39.5-39.5 39.5-7.269 0-14.079-1.982-19.936-5.421zm-34.079-19.564c7.269 0 14.08 1.982 19.936 5.421l-54.015 54.015c-3.44-5.857-5.422-12.668-5.422-19.937.001-21.779 17.721-39.499 39.501-39.499zm-104.921 19.564c3.439 5.857 5.421 12.668 5.421 19.936 0 21.78-17.72 39.5-39.5 39.5-7.269 0-14.079-1.982-19.936-5.421zm-34.079-19.564c7.269 0 14.08 1.982 19.936 5.421l-54.015 54.015c-3.44-5.857-5.422-12.668-5.422-19.937.001-21.779 17.721-39.499 39.501-39.499zm218.5 45.369c0 82.159-66.841 149-149 149s-149-66.841-149-149c0-14.637 2.19-28.931 6.281-42.515l17.05 17.049c-2.149 6.141-3.331 12.732-3.331 19.597 0 32.809 26.691 59.5 59.5 59.5s59.5-26.691 59.5-59.5c0-4.089-.416-8.083-1.205-11.942h22.41c-.789 3.859-1.205 7.853-1.205 11.942 0 32.809 26.691 59.5 59.5 59.5s59.5-26.691 59.5-59.5c0-6.865-1.183-13.456-3.331-19.597l17.058-17.057c4.087 13.583 6.273 27.879 6.273 42.523z"/><path id="XMLID_2100_" d="m279.333 320.817c-5.523 0-10 4.478-10 10 0 7.352-5.981 13.333-13.333 13.333s-13.333-5.981-13.333-13.333c0-5.522-4.478-10-10-10-5.523 0-10 4.478-10 10 0 18.38 14.953 33.333 33.333 33.333s33.333-14.953 33.333-33.333c0-5.523-4.478-10-10-10z"/><path id="XMLID_2099_" d="m256 107c2.63 0 5.2-1.07 7.069-2.931 1.861-1.859 2.931-4.439 2.931-7.069s-1.07-5.21-2.931-7.07c-1.869-1.861-4.439-2.93-7.069-2.93-2.641 0-5.21 1.069-7.07 2.93-1.87 1.86-2.93 4.44-2.93 7.07s1.06 5.21 2.93 7.069c1.86 1.861 4.429 2.931 7.07 2.931z"/></g></g></g></svg>