<svg fill="#d2d1d1" id="Layer_1" enable-background="new 0 0 512 512"  viewBox="0 0 512 512" xmlns="http://www.w3.org/2000/svg"><g><path d="m396.81 360.493c-5.521-3.963-13.02-3.72-18.271.599-63.497 52.188-157.62 48.596-216.925-10.707-59.168-59.166-63.026-153.269-10.707-216.923 4.316-5.251 4.561-12.749.598-18.271-3.964-5.523-11.144-7.689-17.501-5.28-27.55 10.439-52.153 26.367-73.124 47.339-81.253 81.246-81.096 212.784-.001 293.874 81.235 81.237 212.777 81.098 293.873 0 20.97-20.971 36.896-45.574 47.338-73.129 2.41-6.356.243-13.538-5.28-17.502z"/><path d="m170.939 222.034c3.257 1.086 20.445 5.241 35.095 19.665 14.425 14.65 18.58 31.838 19.665 35.095 2.037 6.132 7.773 10.271 14.235 10.271s12.198-4.139 14.235-10.271c1.086-3.257 5.241-20.445 19.665-35.095 14.65-14.425 31.838-18.579 35.095-19.665 6.132-2.037 10.271-7.773 10.271-14.235s-4.139-12.198-10.271-14.235c-3.257-1.086-20.445-5.241-35.095-19.665-14.425-14.65-18.58-31.838-19.665-35.095-2.037-6.132-7.773-10.271-14.235-10.271s-12.198 4.139-14.235 10.271c-1.086 3.257-5.241 20.445-19.665 35.095-14.65 14.425-31.838 18.579-35.095 19.665-6.132 2.037-10.271 7.773-10.271 14.235s4.139 12.198 10.271 14.235z"/><path d="m299.472 93.501c3.257 1.086 20.445 5.241 35.095 19.665 14.425 14.65 18.58 31.838 19.665 35.095 2.037 6.132 7.773 10.271 14.235 10.271s12.198-4.139 14.235-10.271c1.086-3.257 5.24-20.445 19.665-35.095 14.65-14.425 31.838-18.579 35.095-19.665 6.132-2.037 10.271-7.773 10.271-14.235s-4.139-12.198-10.271-14.235c-3.257-1.086-20.446-5.241-35.095-19.665-14.425-14.65-18.58-31.838-19.665-35.095-2.036-6.132-7.772-10.271-14.234-10.271s-12.198 4.139-14.235 10.271c-1.086 3.257-5.24 20.445-19.665 35.095-14.65 14.425-31.838 18.579-35.095 19.665-6.132 2.037-10.271 7.773-10.271 14.235s4.139 12.198 10.27 14.235z"/><path d="m501.729 241.765c-3.257-1.086-20.445-5.241-35.095-19.665-14.425-14.65-18.58-31.838-19.665-35.095-2.037-6.132-7.773-10.271-14.235-10.271s-12.198 4.139-14.235 10.271c-1.086 3.257-5.24 20.445-19.665 35.095-14.65 14.425-31.838 18.579-35.095 19.665-6.132 2.037-10.271 7.773-10.271 14.235s4.139 12.198 10.271 14.235c3.257 1.086 20.445 5.241 35.095 19.665 14.425 14.65 18.579 31.838 19.665 35.095 2.037 6.132 7.773 10.271 14.235 10.271s12.198-4.139 14.235-10.271c1.086-3.257 5.241-20.445 19.665-35.095 14.65-14.425 31.838-18.579 35.095-19.665 6.132-2.037 10.271-7.773 10.271-14.235s-4.139-12.198-10.271-14.235z"/></g></svg>