<?xml version="1.0" standalone="no"?>
<!DOCTYPE svg PUBLIC "-//W3C//DTD SVG 20010904//EN"
 "http://www.w3.org/TR/2001/REC-SVG-20010904/DTD/svg10.dtd">
<svg version="1.0" xmlns="http://www.w3.org/2000/svg"
 width="1280.000000pt" height="836.000000pt" viewBox="0 0 1280.000000 836.000000"
 preserveAspectRatio="xMidYMid meet">
<metadata>
Created by potrace 1.15, written by Peter Selinger 2001-2017
</metadata>
<g transform="translate(0.000000,836.000000) scale(0.100000,-0.100000)"
fill="#ca2f1d" stroke="none">
<path d="M785 8346 c-37 -16 -70 -52 -84 -89 -7 -18 -11 -143 -11 -338 l0
-309 -292 0 c-332 0 -338 -1 -378 -79 l-20 -40 2 -3695 3 -3695 21 -28 c12
-15 36 -37 55 -48 34 -20 55 -20 4959 -23 2709 -1 4939 0 4957 3 55 10 87 47
136 157 25 57 258 593 517 1193 260 600 530 1223 600 1385 130 300 366 844
1087 2510 222 514 416 959 429 989 36 81 40 120 15 169 -43 84 80 77 -1406 80
l-1320 2 -3 512 -2 511 -25 34 c-14 18 -36 38 -48 45 -18 10 -700 14 -3377 18
l-3355 5 -5 327 c-5 311 -6 328 -26 355 -49 66 33 62 -1244 62 -941 0 -1161
-2 -1185 -13z"/>
</g>
</svg>